<svg xmlns="http://www.w3.org/2000/svg" version="1.1" xmlns:xlink="http://www.w3.org/1999/xlink" viewBox="0 0 200 200"><rect width="200" height="200" fill="url('#gradient')"></rect><defs><linearGradient id="gradient" gradientTransform="rotate(360 0.5 0.5)"><stop offset="0%" stop-color="#000000"></stop><stop offset="100%" stop-color="#2b1220"></stop></linearGradient></defs><g><g fill="#2cdb29" transform="matrix(8.411428571428571,0,0,8.411428571428571,21.98165642670223,162.6243795830863)" stroke="#000000" stroke-width="0"><path d="M5.75 0L1.07 0L1.07-14.22L5.65-14.22Q7.54-14.22 9.04-13.36Q10.55-12.51 11.39-10.95Q12.24-9.39 12.25-7.46L12.25-7.46L12.25-6.81Q12.25-4.85 11.42-3.31Q10.60-1.76 9.10-0.88Q7.60-0.01 5.75 0L5.75 0ZM5.65-11.57L4.50-11.57L4.50-2.64L5.69-2.64Q7.17-2.64 7.96-3.69Q8.75-4.74 8.75-6.81L8.75-6.81L8.75-7.42Q8.75-9.48 7.96-10.53Q7.17-11.57 5.65-11.57L5.65-11.57ZM17.32-10.57L17.32 0L14.02 0L14.02-10.57L17.32-10.57ZM13.83-13.29L13.83-13.29Q13.83-13.99 14.34-14.44Q14.84-14.89 15.65-14.89Q16.46-14.89 16.97-14.44Q17.48-13.99 17.48-13.29Q17.48-12.59 16.97-12.14Q16.46-11.69 15.65-11.69Q14.84-11.69 14.34-12.14Q13.83-12.59 13.83-13.29Z"></path></g></g></svg>